# This file uses centimeters as units for non-parametric coordinates.

g default
v -0.045369 -0.000000 0.117683
v -0.045369 -0.000000 -0.117683
v 0.045369 -0.000000 0.117683
v 0.045369 -0.000000 -0.117683
v 0.045369 0.533356 0.117683
v -0.045369 0.533356 0.117683
v -0.045369 0.533356 -0.117683
v 0.045369 0.533356 -0.117683
v -0.045369 0.533356 0.196657
v 0.045369 0.533356 0.196657
v -0.045369 0.533356 -0.196657
v 0.045369 0.533356 -0.196657
v -0.045369 0.949778 0.001661
v 0.045369 0.949778 0.001661
vt 0.272671 0.360381
vt 0.272671 0.819655
vt 0.069997 0.819655
vt 0.069997 0.360381
vt 0.001992 0.360381
vt 0.172764 0.001800
vt 0.340676 0.360381
vt 0.415157 0.461074
vt 0.415157 0.001800
vt 0.617831 0.001800
vt 0.617831 0.461074
vt 0.685835 0.461074
vt 0.517923 0.819655
vt 0.347152 0.461074
vt 0.863624 0.001800
vt 0.941759 0.001800
vt 0.941759 0.360381
vt 0.863624 0.360381
vt 0.692116 0.461074
vt 0.692116 0.001800
vt 0.770251 0.001800
vt 0.770251 0.461074
vt 0.777870 0.461074
vt 0.777870 0.001800
vt 0.856005 0.001800
vt 0.856005 0.461074
vt 0.919873 0.722954
vt 0.919873 0.364373
vt 0.998008 0.364373
vt 0.998008 0.722954
vt 0.835603 0.465065
vt 0.913738 0.465065
vt 0.913738 0.667739
vt 0.835603 0.667739
vt 0.761463 0.543200
vt 0.761463 0.465065
vt 0.829468 0.465065
vt 0.829468 0.543200
vt 0.755328 0.823647
vt 0.755328 0.901781
vt 0.687323 0.901781
vt 0.687323 0.823647
vn 0.000000 -1.000000 -0.000000
vn 0.000000 -1.000000 -0.000000
vn 0.000000 -1.000000 -0.000000
vn 0.000000 -1.000000 -0.000000
vn 1.000000 -0.000000 0.000000
vn 1.000000 -0.000000 0.000000
vn 1.000000 -0.000000 0.000000
vn 1.000000 -0.000000 0.000000
vn 1.000000 -0.000000 0.000000
vn 1.000000 -0.000000 0.000000
vn 1.000000 -0.000000 0.000000
vn 0.000000 0.459281 -0.888291
vn 0.000000 0.459281 -0.888291
vn 0.000000 0.421425 -0.906863
vn 0.000000 0.421425 -0.906863
vn -1.000000 0.000000 0.000000
vn -1.000000 0.000000 0.000000
vn -1.000000 0.000000 0.000000
vn -1.000000 0.000000 0.000000
vn -1.000000 0.000000 0.000000
vn -1.000000 0.000000 0.000000
vn -1.000000 0.000000 0.000000
vn 0.000000 0.000000 -1.000000
vn 0.000000 0.000000 -1.000000
vn 0.000000 0.000000 -1.000000
vn 0.000000 0.000000 -1.000000
vn 0.000000 -0.000000 1.000000
vn 0.000000 -0.000000 1.000000
vn 0.000000 -0.000000 1.000000
vn 0.000000 -0.000000 1.000000
vn 0.000000 0.433359 0.901221
vn 0.000000 0.421425 0.906863
vn 0.000000 0.421425 0.906863
vn 0.000000 0.433359 0.901221
vn 0.000000 -1.000000 -0.000000
vn 0.000000 -1.000000 -0.000000
vn 0.000000 -1.000000 -0.000000
vn 0.000000 -1.000000 -0.000000
vn 0.000000 -1.000000 -0.000000
vn 0.000000 -1.000000 -0.000000
vn 0.000000 -1.000000 -0.000000
vn 0.000000 -1.000000 -0.000000
s off
g Arrow1
f 2/31/1 4/32/2 3/33/3 1/34/4
f 5/1/5 3/2/6 4/3/7 8/4/8 12/5/9 14/6/10 10/7/11
f 13/15/12 14/16/13 12/17/14 11/18/15
f 7/8/16 2/9/17 1/10/18 6/11/19 9/12/20 13/13/21 11/14/22
f 2/19/23 7/20/24 8/21/25 4/22/26
f 6/23/27 1/24/28 3/25/29 5/26/30
f 13/27/31 9/28/32 10/29/33 14/30/34
f 6/35/35 5/36/36 10/37/37 9/38/38
f 8/39/39 7/40/40 11/41/41 12/42/42
